<?xml version="1.0" encoding="UTF-8" standalone="no"?>
<!-- Created with Inkscape (http://www.inkscape.org/) -->

<svg
   xmlns:dc="http://purl.org/dc/elements/1.1/"
   xmlns:cc="http://creativecommons.org/ns#"
   xmlns:rdf="http://www.w3.org/1999/02/22-rdf-syntax-ns#"
   xmlns:svg="http://www.w3.org/2000/svg"
   xmlns="http://www.w3.org/2000/svg"
   xmlns:sodipodi="http://sodipodi.sourceforge.net/DTD/sodipodi-0.dtd"
   xmlns:inkscape="http://www.inkscape.org/namespaces/inkscape"
   version="1.1"
   id="svg2"
   width="480"
   height="380"
   viewBox="0 0 480 380.00001"
   sodipodi:docname="no_image.svg"
   inkscape:version="0.92.0 r15299"
   inkscape:export-filename="/var/www/joodb/joodb-pro3/media/joodb/images/no_image.png"
   inkscape:export-xdpi="104"
   inkscape:export-ydpi="104">
  <metadata
     id="metadata8">
    <rdf:RDF>
      <cc:Work
         rdf:about="">
        <dc:format>image/svg+xml</dc:format>
        <dc:type
           rdf:resource="http://purl.org/dc/dcmitype/StillImage" />
        <dc:title></dc:title>
      </cc:Work>
    </rdf:RDF>
  </metadata>
  <defs
     id="defs6" />
  <sodipodi:namedview
     pagecolor="#ffffff"
     bordercolor="#666666"
     borderopacity="1"
     objecttolerance="10"
     gridtolerance="10"
     guidetolerance="10"
     inkscape:pageopacity="1"
     inkscape:pageshadow="2"
     inkscape:window-width="1920"
     inkscape:window-height="1141"
     id="namedview4"
     showgrid="false"
     inkscape:zoom="1.1858962"
     inkscape:cx="253.69729"
     inkscape:cy="84.18376"
     inkscape:window-x="0"
     inkscape:window-y="26"
     inkscape:window-maximized="1"
     inkscape:current-layer="svg2" />
  <path
     style="fill:#999999;stroke-width:0.49091172"
     d="m 174.97716,227.45373 c -3.36685,-1.02415 -5.95363,-3.18663 -7.67264,-6.4141 -0.85379,-1.603 -0.92448,-3.4376 -1.05454,-27.36832 l -0.13939,-25.65014 h 28.30136 c 26.73139,0 28.28606,0.0477 28.02572,0.8591 -2.05755,6.41315 -2.3616,8.34994 -2.1387,13.62281 0.37531,8.87843 2.85032,14.52889 9.16524,20.92442 3.4332,3.47702 4.92566,4.59011 8.35283,6.2296 5.47811,2.62059 11.12386,3.76438 16.41413,3.32538 7.92595,-0.65774 16.23555,-4.73421 21.41003,-10.50322 2.79917,-3.12078 6.40626,-10.12652 7.37856,-14.3307 1.25211,-5.41412 0.47036,-14.05783 -1.74265,-19.26829 -0.34307,-0.80776 0.56227,-0.8591 15.15137,-0.8591 h 15.51623 v 24.7036 c 0,27.4338 0.004,27.39467 -3.22943,31.17226 -1.1425,1.33476 -2.59463,2.3235 -4.40998,3.00271 -2.6844,1.00436 -3.22009,1.01232 -65.40212,0.97047 -34.48255,-0.0232 -63.24926,-0.21063 -63.92602,-0.41648 z m 71.97956,-26.5966 c -2.98789,-0.70145 -7.48843,-3.32324 -9.55716,-5.56756 -7.83324,-8.49805 -7.55,-20.93026 0.65361,-28.68889 11.4081,-10.7893 29.52812,-5.37253 33.48993,10.01145 2.58451,10.03587 -3.81773,20.96796 -14.05596,24.0011 -2.88087,0.85347 -7.48006,0.95999 -10.53042,0.2439 z m 30.40924,-38.68722 c -4.51073,-5.86204 -11.1844,-10.29122 -18.17467,-12.06214 -6.53126,-1.65462 -15.80455,-0.49552 -21.86096,2.73251 -3.87242,2.06398 -8.7058,6.18755 -10.80425,9.21757 l -1.7182,2.48095 -29.33197,0.023 -29.33198,0.023 0.006,-9.69551 c 0.004,-9.14623 0.0703,-9.83611 1.16048,-12.17736 1.35168,-2.90275 4.41733,-5.71423 7.11074,-6.52119 1.40111,-0.41979 18.48911,-0.56689 64.92679,-0.55896 62.31976,0.0106 63.04993,0.022 65.23429,1.0096 3.10127,1.40221 5.23946,3.64813 6.38306,6.70463 0.85685,2.29017 0.98063,3.82683 0.98063,12.17534 v 9.55437 h -16.17196 -16.1714 z m -92.56738,-28.68475 c 0,-0.0947 0.24251,-0.8679 0.53894,-1.7182 l 0.53894,-1.54599 h 5.32302 c 2.92767,0 5.41598,0.16568 5.52959,0.36819 0.11361,0.2025 0.35176,0.97568 0.52924,1.71819 l 0.32267,1.35001 h -6.3912 c -3.51516,0 -6.3912,-0.0774 -6.3912,-0.1722 z m 29.94562,-0.11481 c 0,-0.15785 1.49114,-2.47304 3.31365,-5.14484 l 3.31365,-4.85784 17.49363,-0.0102 17.49363,-0.0102 0.71809,1.10455 c 0.39493,0.6075 1.85777,2.92705 3.25074,5.15458 l 2.53268,4.05001 h -24.05804 c -13.23191,0 -24.05803,-0.12915 -24.05803,-0.28701 z m 30.43652,-4.62211 v -2.94547 h -6.38185 -6.38186 v 2.94547 2.94546 h 6.38186 6.38185 z m 32.89108,4.67765 c 0,-0.12729 0.54013,-1.45276 1.20028,-2.94547 l 1.20025,-2.71401 h 7.07711 7.0771 l 1.04995,2.7437 c 0.57748,1.50903 1.04997,2.8345 1.04997,2.94547 0,0.11097 -4.1973,0.20178 -9.32733,0.20178 -5.13002,0 -9.32733,-0.10417 -9.32733,-0.23147 z"
     id="path12"
     inkscape:connector-curvature="0" />
  <path
     style="color:#000000;font-style:normal;font-variant:normal;font-weight:normal;font-stretch:normal;font-size:medium;line-height:normal;font-family:sans-serif;font-variant-ligatures:normal;font-variant-position:normal;font-variant-caps:normal;font-variant-numeric:normal;font-variant-alternates:normal;font-feature-settings:normal;text-indent:0;text-align:start;text-decoration:none;text-decoration-line:none;text-decoration-style:solid;text-decoration-color:#000000;letter-spacing:normal;word-spacing:normal;text-transform:none;writing-mode:lr-tb;direction:ltr;text-orientation:mixed;dominant-baseline:auto;baseline-shift:baseline;text-anchor:start;white-space:normal;shape-padding:0;clip-rule:nonzero;display:inline;overflow:visible;visibility:visible;opacity:1;isolation:auto;mix-blend-mode:normal;color-interpolation:sRGB;color-interpolation-filters:linearRGB;solid-color:#000000;solid-opacity:1;vector-effect:none;fill:#ffffff;fill-opacity:1;fill-rule:nonzero;stroke:none;stroke-width:21.24799919;stroke-linecap:round;stroke-linejoin:round;stroke-miterlimit:4;stroke-dasharray:none;stroke-dashoffset:0;stroke-opacity:1;marker:none;color-rendering:auto;image-rendering:auto;shape-rendering:auto;text-rendering:auto;enable-background:accumulate"
     d="m 240.97291,49.330936 c -51.5048,-0.137016 -101.08219,33.795888 -119.40624,81.980474 -19.20376,47.71342 -6.43497,106.23596 31.24414,141.35156 33.993,32.67053 86.4254,44.42336 130.96674,28.76338 45.66837,-15.15702 80.91751,-57.5364 86.78326,-105.39424 C 377.24921,147.23103 353.7964,95.46636 311.66823,69.524296 290.69498,56.200504 265.84226,48.968031 240.97291,49.330936 Z m 2.2754,29.124998 c 44.84153,-0.2067 87.72796,33.915106 96.742,78.221926 4.33839,19.12071 2.91189,39.85398 -4.32208,58.25464 -57.14857,-33.09741 -114.48285,-65.87333 -171.50782,-99.18359 18.81852,-23.669046 48.87426,-37.748906 79.0879,-37.292976 z m 77.55664,162.542976 c -26.88827,35.10256 -77.98241,48.07693 -118.29197,29.98055 -37.37813,-15.73528 -63.12088,-55.89802 -60.59084,-96.5411 0.4745,-10.94542 2.85452,-22.30031 7.03515,-32.6582 57.28255,33.07292 114.5651,66.14583 171.84766,99.21875 z"
     id="path828"
     inkscape:connector-curvature="0" />
  <path
     style="color:#000000;font-style:normal;font-variant:normal;font-weight:normal;font-stretch:normal;font-size:medium;line-height:normal;font-family:sans-serif;font-variant-ligatures:normal;font-variant-position:normal;font-variant-caps:normal;font-variant-numeric:normal;font-variant-alternates:normal;font-feature-settings:normal;text-indent:0;text-align:start;text-decoration:none;text-decoration-line:none;text-decoration-style:solid;text-decoration-color:#000000;letter-spacing:normal;word-spacing:normal;text-transform:none;writing-mode:lr-tb;direction:ltr;text-orientation:mixed;dominant-baseline:auto;baseline-shift:baseline;text-anchor:start;white-space:normal;shape-padding:0;clip-rule:nonzero;display:inline;overflow:visible;visibility:visible;opacity:1;isolation:auto;mix-blend-mode:normal;color-interpolation:sRGB;color-interpolation-filters:linearRGB;solid-color:#000000;solid-opacity:1;vector-effect:none;fill:#e6e6e6;fill-opacity:1;fill-rule:nonzero;stroke:none;stroke-width:21.24799919;stroke-linecap:round;stroke-linejoin:round;stroke-miterlimit:4;stroke-dasharray:none;stroke-dashoffset:0;stroke-opacity:1;marker:none;color-rendering:auto;image-rendering:auto;shape-rendering:auto;text-rendering:auto;enable-background:accumulate"
     d="m 133.45717,116.04034 c -34.59193,59.91498 -13.97852,136.83991 45.93645,171.43184 59.91497,34.59192 136.83892,13.98021 171.43085,-45.93477 C 385.41639,181.62244 364.80468,104.69849 304.88971,70.106556 244.97474,35.514631 168.04909,56.125363 133.45717,116.04034 Z m 13.58584,20.01551 179.6546,103.72364 c -30.91881,43.02973 -89.79198,56.36213 -136.67997,29.29134 -46.88799,-27.0708 -64.77989,-84.72353 -42.97463,-133.01498 z m 11.08626,-19.00275 c 31.06123,-42.435134 89.52132,-55.458428 136.13642,-28.545196 46.61509,26.913246 64.56514,84.051956 43.34566,132.169216 z"
     id="path14"
     inkscape:connector-curvature="0" />
</svg>
